<svg xmlns="http://www.w3.org/2000/svg" width="1024" height="1024" viewBox="0 0 1024 1024" version="1.1"><path d="M 587.500 129.873 C 579.078 132.097, 572.866 138.222, 570.955 146.186 C 568.687 155.640, 572.101 165.016, 579.774 170.409 C 583.909 173.315, 584.479 173.422, 599.765 174.175 C 640.477 176.180, 665.962 182.177, 696.500 196.938 C 711.951 204.407, 727.499 214.297, 742 225.881 C 752.668 234.403, 775.576 257.064, 778.242 261.732 L 779.985 264.783 764.846 272.613 C 747.233 281.722, 745.453 282.980, 743.475 287.715 C 739.894 296.285, 743.473 306.608, 751.457 310.737 C 753.087 311.579, 775.073 319.633, 800.316 328.634 C 838.507 342.252, 847.137 345, 851.720 345 C 858.752 345, 863.956 342.174, 867.132 336.632 L 869.500 332.500 870 275 C 870.276 243.375, 870.118 215.925, 869.651 214 C 869.184 212.075, 868.058 209.665, 867.151 208.644 C 864.567 205.738, 858.429 203, 854.500 203 C 847.626 203, 843.946 206.024, 831.434 221.957 C 824.937 230.231, 819.369 236.999, 819.061 236.997 C 818.752 236.995, 815.191 233.190, 811.146 228.540 C 771.746 183.247, 721.472 150.268, 671.582 136.987 C 650.352 131.336, 638.571 129.802, 613.500 129.426 C 600.850 129.236, 589.150 129.437, 587.500 129.873 M 180.977 275.276 C 168.261 279.611, 158.741 287.719, 153.261 298.879 L 150.500 304.500 150.500 495 L 150.500 685.500 153.311 693.453 C 154.857 697.827, 158.516 705.477, 161.441 710.453 C 170.341 725.590, 169.990 723.038, 170.073 773.285 C 170.113 797.603, 170.484 819.874, 170.897 822.776 C 172.115 831.331, 177.469 836.848, 185.424 837.744 C 193.726 838.680, 196.635 836.526, 210.069 819.493 L 222.017 804.345 236.258 818.465 C 282.591 864.402, 340.822 890.585, 406.820 895.157 C 426.997 896.554, 443.326 895.405, 449.734 892.136 C 462.864 885.438, 466.189 867.186, 456.197 856.658 C 450.418 850.569, 447.184 849.709, 427 848.889 C 405 847.996, 394.367 846.775, 379.251 843.407 C 347.122 836.248, 313.577 820.014, 288 799.248 C 279.466 792.319, 265.963 779.393, 266.073 778.257 C 266.114 777.841, 273.838 773.675, 283.239 769 C 294.124 763.587, 301.048 759.528, 302.305 757.824 C 303.391 756.353, 304.496 752.895, 304.761 750.140 C 305.366 743.841, 302.311 736.949, 297.679 734.164 C 295.931 733.112, 274.700 724.943, 250.500 716.009 C 226.300 707.075, 204.457 698.733, 201.960 697.472 C 196.662 694.796, 189.565 687.461, 187.174 682.190 C 185.632 678.790, 185.479 664.180, 185.237 496.281 L 184.974 314.061 187.905 310.781 L 190.836 307.500 454.418 307.243 L 718 306.985 718 289.993 L 718 273 452.750 273.026 L 187.500 273.052 180.977 275.276 M 226.256 337.117 C 221.873 338.383, 216.337 344.125, 215.058 348.731 C 214.350 351.281, 214.009 402.809, 214.006 508.038 L 214 663.576 216.250 668.038 C 217.827 671.165, 219.846 673.248, 223 675 L 227.500 677.500 531.844 677.756 L 836.188 678.013 835.525 685.705 C 835.160 689.936, 834.284 694.777, 833.579 696.464 C 831.827 700.659, 825.737 705.792, 821.771 706.417 C 813.485 707.722, 773.164 707.942, 537.550 707.970 C 398.978 707.987, 286.028 708.372, 286.550 708.826 C 287.073 709.281, 293.800 712.052, 301.500 714.984 C 316.423 720.667, 318.874 721.896, 323.343 725.932 C 326.343 728.641, 330.264 735.630, 331.376 740.250 L 332.038 743 577.269 742.983 C 784.066 742.968, 823.539 742.745, 829.131 741.560 C 847.845 737.593, 863.352 723.478, 869.761 704.578 L 872.500 696.500 872.500 536.163 L 872.500 375.827 869.785 373.492 C 867.246 371.307, 866.468 371.190, 857.785 371.685 L 848.500 372.214 800.500 355.240 C 774.100 345.904, 750.115 337.756, 747.201 337.133 C 740.457 335.691, 231.247 335.676, 226.256 337.117 M 439.054 411.165 C 431.911 416.019, 432.221 413.234, 431.898 475.500 C 431.739 506.300, 431.696 546.171, 431.804 564.102 C 431.996 596.106, 432.041 596.765, 434.250 600.010 C 438.080 605.638, 441.455 607.500, 447.823 607.500 C 453.411 607.500, 454.002 607.200, 485.500 588.392 C 503.100 577.883, 534.825 559.021, 556 546.476 C 577.175 533.931, 595.572 522.730, 596.882 521.584 C 600.025 518.834, 602.951 512.347, 602.978 508.066 C 603.010 503.065, 599.492 496.589, 595.213 493.774 C 593.171 492.430, 560.450 472.943, 522.500 450.470 C 457.454 411.952, 453.185 409.588, 448 409.217 C 443.472 408.893, 441.891 409.237, 439.054 411.165" stroke="none" fill="#f4d8a4" fill-rule="evenodd"/><path d="M 0 512.001 L 0 1024.002 512.250 1023.751 L 1024.500 1023.500 1024.751 511.750 L 1025.002 0 512.501 0 L 0 0 0 512.001 M 0.496 512.500 C 0.496 794.100, 0.610 909.151, 0.750 768.168 C 0.890 627.186, 0.890 396.786, 0.750 256.168 C 0.610 115.551, 0.496 230.900, 0.496 512.500 M 587.500 129.873 C 579.078 132.097, 572.866 138.222, 570.955 146.186 C 568.687 155.640, 572.101 165.016, 579.774 170.409 C 583.909 173.315, 584.479 173.422, 599.765 174.175 C 640.477 176.180, 665.962 182.177, 696.500 196.938 C 711.951 204.407, 727.499 214.297, 742 225.881 C 752.668 234.403, 775.576 257.064, 778.242 261.732 L 779.985 264.783 764.846 272.613 C 747.233 281.722, 745.453 282.980, 743.475 287.715 C 739.894 296.285, 743.473 306.608, 751.457 310.737 C 753.087 311.579, 775.073 319.633, 800.316 328.634 C 838.507 342.252, 847.137 345, 851.720 345 C 858.752 345, 863.956 342.174, 867.132 336.632 L 869.500 332.500 870 275 C 870.276 243.375, 870.118 215.925, 869.651 214 C 869.184 212.075, 868.058 209.665, 867.151 208.644 C 864.567 205.738, 858.429 203, 854.500 203 C 847.626 203, 843.946 206.024, 831.434 221.957 C 824.937 230.231, 819.369 236.999, 819.061 236.997 C 818.752 236.995, 815.191 233.190, 811.146 228.540 C 771.746 183.247, 721.472 150.268, 671.582 136.987 C 650.352 131.336, 638.571 129.802, 613.500 129.426 C 600.850 129.236, 589.150 129.437, 587.500 129.873 M 180.977 275.276 C 168.261 279.611, 158.741 287.719, 153.261 298.879 L 150.500 304.500 150.500 495 L 150.500 685.500 153.311 693.453 C 154.857 697.827, 158.516 705.477, 161.441 710.453 C 170.341 725.590, 169.990 723.038, 170.073 773.285 C 170.113 797.603, 170.484 819.874, 170.897 822.776 C 172.115 831.331, 177.469 836.848, 185.424 837.744 C 193.726 838.680, 196.635 836.526, 210.069 819.493 L 222.017 804.345 236.258 818.465 C 282.591 864.402, 340.822 890.585, 406.820 895.157 C 426.997 896.554, 443.326 895.405, 449.734 892.136 C 462.864 885.438, 466.189 867.186, 456.197 856.658 C 450.418 850.569, 447.184 849.709, 427 848.889 C 405 847.996, 394.367 846.775, 379.251 843.407 C 347.122 836.248, 313.577 820.014, 288 799.248 C 279.466 792.319, 265.963 779.393, 266.073 778.257 C 266.114 777.841, 273.838 773.675, 283.239 769 C 294.124 763.587, 301.048 759.528, 302.305 757.824 C 303.391 756.353, 304.496 752.895, 304.761 750.140 C 305.366 743.841, 302.311 736.949, 297.679 734.164 C 295.931 733.112, 274.700 724.943, 250.500 716.009 C 226.300 707.075, 204.457 698.733, 201.960 697.472 C 196.662 694.796, 189.565 687.461, 187.174 682.190 C 185.632 678.790, 185.479 664.180, 185.237 496.281 L 184.974 314.061 187.905 310.781 L 190.836 307.500 454.418 307.243 L 718 306.985 718 289.993 L 718 273 452.750 273.026 L 187.500 273.052 180.977 275.276 M 226.256 337.117 C 221.873 338.383, 216.337 344.125, 215.058 348.731 C 214.350 351.281, 214.009 402.809, 214.006 508.038 L 214 663.576 216.250 668.038 C 217.827 671.165, 219.846 673.248, 223 675 L 227.500 677.500 531.844 677.756 L 836.188 678.013 835.525 685.705 C 835.160 689.936, 834.284 694.777, 833.579 696.464 C 831.827 700.659, 825.737 705.792, 821.771 706.417 C 813.485 707.722, 773.164 707.942, 537.550 707.970 C 398.978 707.987, 286.028 708.372, 286.550 708.826 C 287.073 709.281, 293.800 712.052, 301.500 714.984 C 316.423 720.667, 318.874 721.896, 323.343 725.932 C 326.343 728.641, 330.264 735.630, 331.376 740.250 L 332.038 743 577.269 742.983 C 784.066 742.968, 823.539 742.745, 829.131 741.560 C 847.845 737.593, 863.352 723.478, 869.761 704.578 L 872.500 696.500 872.500 536.163 L 872.500 375.827 869.785 373.492 C 867.246 371.307, 866.468 371.190, 857.785 371.685 L 848.500 372.214 800.500 355.240 C 774.100 345.904, 750.115 337.756, 747.201 337.133 C 740.457 335.691, 231.247 335.676, 226.256 337.117 M 439.054 411.165 C 431.911 416.019, 432.221 413.234, 431.898 475.500 C 431.739 506.300, 431.696 546.171, 431.804 564.102 C 431.996 596.106, 432.041 596.765, 434.250 600.010 C 438.080 605.638, 441.455 607.500, 447.823 607.500 C 453.411 607.500, 454.002 607.200, 485.500 588.392 C 503.100 577.883, 534.825 559.021, 556 546.476 C 577.175 533.931, 595.572 522.730, 596.882 521.584 C 600.025 518.834, 602.951 512.347, 602.978 508.066 C 603.010 503.065, 599.492 496.589, 595.213 493.774 C 593.171 492.430, 560.450 472.943, 522.500 450.470 C 457.454 411.952, 453.185 409.588, 448 409.217 C 443.472 408.893, 441.891 409.237, 439.054 411.165" stroke="none" fill="#7b292b" fill-rule="evenodd"/></svg>